<?xml version="1.0" encoding="utf-8"?>
<!-- Generator: Adobe Illustrator 25.2.0, SVG Export Plug-In . SVG Version: 6.00 Build 0)  -->
<svg version="1.1" id="Layer_1" xmlns="http://www.w3.org/2000/svg" xmlns:xlink="http://www.w3.org/1999/xlink" x="0px" y="0px"
	 viewBox="0 0 595.3 184.2" style="enable-background:new 0 0 595.3 184.2;" xml:space="preserve">
<style type="text/css">
	.st0{fill:#FFFFFF;}
</style>
<g>
	<path class="st0" d="M225.5,26.6c0,6.7-5.5,12-12.2,12c-6.7,0-12-5.5-12-12.2c0-6.7,5.5-12,12.2-12C220.2,14.5,225.6,20,225.5,26.6
		"/>
	
		<rect x="187.5" y="59.7" transform="matrix(6.742877e-03 -1 1 6.742877e-03 176.4848 321.3062)" class="st0" width="124.9" height="24.2"/>
	
		<rect x="232.8" y="76.7" transform="matrix(6.727404e-03 -1 1 6.727404e-03 187.8908 366.6359)" class="st0" width="91.5" height="24.2"/>
	<path class="st0" d="M448.8,135.6l0.4-56.7c0-6.9-1.1-11.7-3.5-14.2c-2.4-2.6-6.4-3.9-12-3.9c-3,0-5.6,0.6-8,1.7
		c-2.4,1.2-4.4,2.8-6,4.8c-1.6,2-2.9,4.4-3.7,7c-0.8,2.7-1.2,5.5-1.3,8.6l-0.4,52.4l-24.2-0.2l0.8-124.9l24.2,0.2l-0.3,45.4
		c0.9-2,2.2-3.9,4-5.6c1.8-1.8,3.9-3.3,6.3-4.5c2.4-1.2,5-2.2,7.8-2.9c2.9-0.7,5.8-1.1,8.9-1.1c9.4,0.1,17.1,2.7,22.9,7.9
		c5.8,5.2,8.7,12.4,8.7,21.5l-0.4,64.7L448.8,135.6z"/>
	<path class="st0" d="M362.8,43.5l0,6.5c-0.3-0.2-0.6-0.4-0.9-0.6c-3.4-2-7-3.5-10.8-4.6c-7.7-2.2-16.2-2.2-23.9-0.2
		c-3.8,1-7.5,2.5-10.9,4.5c-3.3,1.9-6.4,4.3-9.1,7c-2.7,2.7-5.1,5.8-7.2,9.1c-2,3.4-3.6,7-4.7,10.9c-1.1,3.9-1.6,7.9-1.6,12
		c0,4.1,0.5,8.1,1.5,12c1,3.9,2.5,7.5,4.5,10.8c1.9,3.4,4.2,6.5,7,9.2c2.7,2.7,5.8,5.1,9.1,7.1c3.4,2,7,3.6,10.9,4.7
		c3.8,1.1,7.8,1.6,12,1.6c4.1,0,8.1-0.5,12-1.5c3.8-1,7.5-2.5,11-4.5c0.3-0.2,0.5-0.4,0.8-0.5l-0.1,10.8c0,6.1-2.3,10.9-6.8,14.4
		c-4.5,3.5-10,5.2-16.4,5.2c-6.1,0-10.9-1.6-14.6-4.7c-3.6-3.1-5.4-7.4-5.4-13l-22.5-0.2c0,5.9,1,11.3,3.2,16
		c2.2,4.7,5.2,8.7,9.1,12.1c3.9,3.3,8.5,5.9,14,7.7c5.4,1.8,11.3,2.8,17.6,2.8c6.3,0,12.3-0.8,17.9-2.7c5.6-1.8,10.4-4.5,14.6-8
		c4.1-3.5,7.4-7.9,9.8-13.1c2.4-5.3,3.6-11.4,3.7-18.3l0.6-92.4L362.8,43.5z M360.7,97.8c-1.2,3-3,5.6-5.1,7.8
		c-2.2,2.2-4.8,3.9-7.7,5.2c-5.8,2.4-12.8,2.4-18.5-0.1c-2.9-1.3-5.4-3-7.6-5.3c-2.2-2.2-3.9-4.9-5-7.8c-1.2-3-1.8-6.2-1.7-9.5
		c0-3.3,0.7-6.5,1.9-9.5c1.2-2.9,2.9-5.5,5.1-7.7c2.2-2.2,4.8-4,7.7-5.2c2.9-1.2,6-1.8,9.2-1.8c3.3,0,6.4,0.7,9.2,1.9
		c2.9,1.3,5.5,3.1,7.6,5.3c2.1,2.2,3.8,4.9,5,7.8c0.9,2.2,1.4,4.4,1.6,6.8l0,5.2C362.2,93.4,361.6,95.7,360.7,97.8"/>
	<path class="st0" d="M529.5,79.6l-0.1,20.1c0,5.7-1.2,10.1-3.5,13.2c-2.3,3.1-5.9,4.6-10.7,4.6c-5,0-8.5-1.6-10.7-4.8
		c-2.1-3.2-3.2-7.7-3.2-13.5l0.3-37.6l50.6,0.3l0.1-17.1l-50.6-0.3l0.2-24.7L478,19.6l-0.6,81.8c0,5,0.6,9.7,2,14.1
		c1.3,4.5,3.5,8.4,6.5,11.8c3,3.4,6.9,6.1,11.6,8.1c4.7,2,10.4,3,17.1,3.1c6.4,0,12-0.9,16.7-2.9c4.7-1.9,8.5-4.6,11.6-8
		c3.1-3.4,5.3-7.3,6.8-11.7c1.5-4.4,2.2-9,2.2-13.8l0.2-22.4L529.5,79.6z"/>
	<path class="st0" d="M150.4,8.8c-34.6,0-62.6,28.3-62.6,63.3c0,34.9,28,63.3,62.6,63.3S213,107,213,72.1
		C213,37.1,185,8.8,150.4,8.8z M150.4,111.9c-21.7,0-39.3-17.8-39.3-39.8s17.6-39.8,39.3-39.8s39.3,17.8,39.3,39.8
		S172.1,111.9,150.4,111.9z"/>
	<path class="st0" d="M99.3,35.6c-1.2-6.8-5.7-12.4-10.3-16.9c-6.3-6.1-15.5-9.1-27.6-9.2L0.6,9.1l-0.8,123.4l55.6,0.4
		c15.6,0.1,27.2-3.1,34.8-9.7c4.2-3.7,7.3-8.1,9.1-13.2V35.6z M25.3,30.7l31,0.2c6.1,0,10.4,1.1,13.1,3.3c2.6,2.1,4,5.5,3.9,10.3
		c-0.1,8.9-5.3,13.4-15.7,13.3l-32.5-0.2L25.3,30.7z M71.5,107c-3.4,3.3-8,5-14,4.9l-32.7-0.2L25,78.5l33.1,0.2
		c5.8,0,10.4,1.3,13.6,3.8C75,85,76.6,89,76.6,94.4C76.6,99.5,74.9,103.7,71.5,107z"/>
	<path class="st0" d="M578.5,67.7c-2.4,0-4.6-0.4-6.6-1.2c-2-0.8-3.7-1.9-5.2-3.4c-1.5-1.4-2.6-3.1-3.4-5.1c-0.8-2-1.2-4.1-1.2-6.4
		c0-2.3,0.4-4.4,1.2-6.4c0.8-2,2-3.6,3.4-5.1c1.5-1.4,3.2-2.5,5.2-3.4c2-0.8,4.2-1.2,6.6-1.2c2.4,0,4.6,0.4,6.6,1.2
		c2,0.8,3.8,1.9,5.2,3.4c1.5,1.4,2.6,3.1,3.5,5.1c0.8,2,1.2,4.1,1.2,6.4c0,2.3-0.4,4.4-1.2,6.4c-0.8,2-2,3.7-3.5,5.1
		c-1.5,1.4-3.2,2.6-5.2,3.4C583,67.3,580.8,67.7,578.5,67.7z M578.5,66.1c2.1,0,4-0.4,5.8-1c1.8-0.7,3.3-1.7,4.6-3
		c1.3-1.3,2.4-2.8,3.1-4.6c0.8-1.8,1.1-3.7,1.1-5.8c0-2-0.4-3.9-1.1-5.7c-0.7-1.7-1.8-3.3-3.1-4.6c-1.3-1.3-2.9-2.3-4.6-3
		c-1.8-0.7-3.7-1.1-5.8-1.1c-2.1,0-4.1,0.4-5.8,1.1c-1.8,0.7-3.3,1.7-4.6,3s-2.3,2.8-3,4.6c-0.7,1.7-1.1,3.6-1.1,5.6
		c0,2,0.4,3.9,1.1,5.7c0.7,1.8,1.7,3.3,3,4.6c1.3,1.3,2.8,2.3,4.6,3S576.4,66.1,578.5,66.1z M571.6,41.7h8.5c0.9,0,1.7,0.2,2.4,0.6
		c0.7,0.4,1.4,0.9,1.9,1.5c0.5,0.6,1,1.3,1.2,2.1c0.3,0.8,0.4,1.5,0.4,2.3c0,1.4-0.4,2.6-1.2,3.8c-0.8,1.1-1.8,1.8-3.1,2.2l4.8,7.6
		h-3.2l-4.5-7.2h-4.5v7.2h-2.9V41.7z M580,51.9c1.1,0,1.9-0.4,2.5-1.1c0.6-0.7,0.9-1.6,0.9-2.8c0-1.1-0.3-2-1-2.7
		c-0.7-0.7-1.5-1-2.5-1h-5.4v7.6H580z"/>
</g>
</svg>
