<svg id="Layer_1" data-name="Layer 1" xmlns="http://www.w3.org/2000/svg" viewBox="0 0 15 15"><defs><style>.cls-1{fill:#3c3c3b;}.cls-2{fill:#fff;}</style></defs><title>PICTOGRAMS</title><rect class="cls-1" x="1.13" y="1.13" width="12.74" height="12.74" transform="translate(15 15) rotate(180)"/><path class="cls-2" d="M2,3.59V2.37a.09.09,0,0,1,.08-.09H13a.09.09,0,0,1,.08.09V3.59a.09.09,0,0,1-.08.09h-5a.09.09,0,0,0-.09.09v2.7a.09.09,0,0,0,.09.09h.78a.09.09,0,0,1,.09.09v1.1a.09.09,0,0,1-.09.08H6.29a.09.09,0,0,1-.09-.08V6.65a.09.09,0,0,1,.09-.09h.78a.09.09,0,0,0,.09-.08V3.77a.09.09,0,0,0-.09-.09h-5A.09.09,0,0,1,2,3.59Z"/></svg>