<svg id="Layer_1" data-name="Layer 1" xmlns="http://www.w3.org/2000/svg" viewBox="0 0 15 15"><defs><style>.cls-1{fill:none;}.cls-2{fill:#1d1d1b;}</style></defs><title>PICTOGRAMS</title><rect class="cls-1" x="2.34" y="1.19" width="10.32" height="10.32"/><path class="cls-2" d="M12.7,11.55H2.3V1.14H12.7ZM2.38,11.46H12.62V1.23H2.38Z"/><rect class="cls-2" x="7.46" y="11.25" width="0.09" height="0.26"/><path class="cls-2" d="M7.54,10.73H7.46v-.52h.08Zm0-1H7.46V9.18h.08Zm0-1H7.46V8.15h.08Zm0-1H7.46V7.12h.08Zm0-1H7.46V6.09h.08Zm0-1H7.46V5.06h.08Zm0-1H7.46V4h.08Zm0-1H7.46V3h.08Zm0-1H7.46V2h.08Z"/><rect class="cls-2" x="7.46" y="1.19" width="0.09" height="0.26"/><path d="M7.41,6.75V6L8.9,7.44,7.42,8.93v-.8H7.05a7.6,7.6,0,0,1-2.21-.43A1.82,1.82,0,0,1,4,7.15a.91.91,0,0,1-.23-.57c0-.27,0-.55,0-.83a.28.28,0,0,1,0-.08A.87.87,0,0,0,4.1,6a2.26,2.26,0,0,0,.68.33,6.88,6.88,0,0,0,1.43.31,7.15,7.15,0,0,0,1.13.07Z"/><path d="M7.26,5v.55l-.9-.91.9-.91V4.3l.52,0a8.89,8.89,0,0,1,2.06.28,1.8,1.8,0,0,1,.88.47.66.66,0,0,1,.17.29.25.25,0,0,1,0,.19.55.55,0,0,1-.29.25h-.05a3.42,3.42,0,0,0-1.4-.56A9,9,0,0,0,7.33,5Z"/><path d="M9.38,8.06V6.59l.44-.11a3.4,3.4,0,0,0,1-.39.84.84,0,0,0,.4-.43c0,.11,0,.2,0,.29a3.31,3.31,0,0,1,0,.77,1.14,1.14,0,0,1-.47.74,4,4,0,0,1-1.31.6Z"/><path d="M4.32,5.73a.6.6,0,0,1-.26-.36.34.34,0,0,1,.08-.29,1,1,0,0,1,.35-.27A3.59,3.59,0,0,1,5.6,4.46l.23,0v.7A3,3,0,0,0,4.32,5.73Z"/><path class="cls-2" d="M4.42,13.84l-.32-.56H4v.56H3.67V12.39h.54a.65.65,0,0,1,.29.06.4.4,0,0,1,.18.16.44.44,0,0,1,.06.23.38.38,0,0,1-.09.25.41.41,0,0,1-.24.16l.34.59ZM4,13.06H4.2A.24.24,0,0,0,4.38,13a.21.21,0,0,0,.06-.16.19.19,0,0,0-.06-.15.24.24,0,0,0-.18-.06H4Z"/><path class="cls-2" d="M5.3,13.76A.75.75,0,0,1,5,13.5a.76.76,0,0,1-.1-.39.7.7,0,0,1,.1-.38.75.75,0,0,1,.27-.26.69.69,0,0,1,.37-.1.72.72,0,0,1,.38.1.75.75,0,0,1,.27.26.79.79,0,0,1,.09.38.86.86,0,0,1-.09.39.75.75,0,0,1-.27.26.83.83,0,0,1-.38.1A.79.79,0,0,1,5.3,13.76Zm.6-.22a.44.44,0,0,0,.16-.17.55.55,0,0,0,.05-.26.51.51,0,0,0-.05-.25.44.44,0,0,0-.16-.17.41.41,0,0,0-.23-.06.46.46,0,0,0-.23.06.44.44,0,0,0-.16.17.66.66,0,0,0,0,.25.71.71,0,0,0,0,.26.44.44,0,0,0,.16.17.46.46,0,0,0,.23.06A.41.41,0,0,0,5.9,13.54Z"/><path class="cls-2" d="M7.62,12.39v.24H7.23v1.21H6.94V12.63H6.55v-.24Z"/><path class="cls-2" d="M8.72,13.57H8.14l-.1.27h-.3l.52-1.45H8.6l.52,1.45H8.81Zm-.08-.24-.21-.6-.21.6Z"/><path class="cls-2" d="M10.3,12.39v.24H9.92v1.21h-.3V12.63H9.24v-.24Z"/><path class="cls-2" d="M10.8,12.63V13h.49v.23H10.8v.38h.55v.24h-.84V12.39h.84v.24Z"/></svg>