<svg id="Layer_1" data-name="Layer 1" xmlns="http://www.w3.org/2000/svg" viewBox="0 0 15 15"><defs><style>.cls-1{fill:#3c3c3b;}.cls-2{fill:#fff;}</style></defs><title>PICTOGRAMS</title><rect class="cls-1" x="1.13" y="1.13" width="12.74" height="12.74" transform="translate(15 0) rotate(90)"/><path class="cls-2" d="M2.37,13H3.59A.09.09,0,0,0,3.68,13v-4a.09.09,0,0,0-.09-.09H3a.08.08,0,0,1-.09-.08V6.24A.08.08,0,0,1,3,6.16h.59a.09.09,0,0,0,.09-.09v-4A.09.09,0,0,0,3.59,2H2.37a.09.09,0,0,0-.09.08V13A.09.09,0,0,0,2.37,13Z"/></svg>