<svg id="Layer_1" data-name="Layer 1" xmlns="http://www.w3.org/2000/svg" viewBox="0 0 15 15"><defs><style>.cls-1{fill:#3c3c3b;}.cls-2{fill:#fff;}</style></defs><title>PICTOGRAMS</title><rect class="cls-1" x="1.13" y="1.13" width="12.74" height="12.74" transform="translate(15 15) rotate(180)"/><path class="cls-2" d="M2,2.37V3.59a.09.09,0,0,0,.08.09h4a.09.09,0,0,0,.09-.09V3a.08.08,0,0,1,.08-.09H8.76A.08.08,0,0,1,8.84,3v.59a.09.09,0,0,0,.09.09h4A.09.09,0,0,0,13,3.59V2.37A.09.09,0,0,0,13,2.28H2.05A.09.09,0,0,0,2,2.37Z"/></svg>