<svg id="Layer_1" data-name="Layer 1" xmlns="http://www.w3.org/2000/svg" viewBox="0 0 15 15"><defs><style>.cls-1{fill:#3c3c3b;}.cls-2{fill:#fff;}</style></defs><title>PICTOGRAMS</title><rect class="cls-1" x="1.13" y="1.13" width="12.74" height="12.74" transform="translate(15 15) rotate(180)"/><path class="cls-2" d="M13.05,2.37V3.59a.09.09,0,0,1-.09.09H9a.09.09,0,0,0-.08.09V4.85a.09.09,0,0,1-.09.09H6.16a.09.09,0,0,1-.09-.09V3.77A.08.08,0,0,0,6,3.68H2A.09.09,0,0,1,2,3.6V2.37A.09.09,0,0,1,2,2.28H13A.09.09,0,0,1,13.05,2.37Z"/></svg>