<svg id="Layer_1" data-name="Layer 1" xmlns="http://www.w3.org/2000/svg" viewBox="0 0 15 15"><defs><style>.cls-1{fill:#3c3c3b;}.cls-2{fill:#fff;}</style></defs><title>PICTOGRAMS</title><rect class="cls-1" x="1.13" y="1.13" width="12.74" height="12.74" transform="translate(15 0) rotate(90)"/><path class="cls-2" d="M2.37,2H3.59A.09.09,0,0,1,3.68,2V6a.09.09,0,0,0,.09.08H4.85a.09.09,0,0,1,.09.09V8.84a.09.09,0,0,1-.09.09H3.77A.08.08,0,0,0,3.68,9v4a.09.09,0,0,1-.08.09H2.37A.09.09,0,0,1,2.28,13V2A.09.09,0,0,1,2.37,2Z"/></svg>