<svg id="Layer_1" data-name="Layer 1" xmlns="http://www.w3.org/2000/svg" viewBox="0 0 15 15"><defs><style>.cls-1,.cls-2{fill:#3c3c3b;}.cls-1{stroke:#3c3c3b;stroke-miterlimit:10;stroke-width:0.5px;}</style></defs><title>PICTOGRAMS</title><path class="cls-1" d="M10.27,12.5H4.37a.23.23,0,0,1-.23-.23V7.5s0,0,0,0H3.47a.24.24,0,0,1-.22-.16.24.24,0,0,1,.07-.24l.47-.4.38-.35L4.59,6,5,5.58l.32-.28L5.68,5l.21-.19.29-.25c.11-.11.23-.2.34-.3l.39-.35.26-.22.2-.18.35-.31L7.94,3a.61.61,0,0,1,.14-.1.23.23,0,0,1,.27,0,1.42,1.42,0,0,0,.13.12L9,3.47l.44.39.39.34c.18.17.37.33.56.49l.52.47.2.17.47.41.38.35.33.28.32.28.34.3.15.14a.17.17,0,0,1,0,.17.16.16,0,0,1-.06.13.3.3,0,0,1-.15.07h-.64s0,0,0,0v4.78a.23.23,0,0,1-.23.23Zm-.72-.44h2.17s0,0,0-.05V8.54c0-.43,0-.87,0-1.3A.24.24,0,0,1,12,7h.3l0,0-.11-.09-.3-.27-.26-.22L11.19,6l-.35-.31-.26-.24-.34-.29-.13-.12L10,5l-.58-.5L9,4.11l-.45-.4c-.12-.1-.24-.2-.35-.31h0l-.26.23L7.53,4l-.34.3L6.9,4.5l-.4.36L6.33,5l-.11.1L6,5.27l-.21.18-.18.16-.21.19-.12.1L5.23,6,5,6.15l-.28.25-.35.31L4.09,7l0,0h.25a.24.24,0,0,1,.27.23c0,.47,0,.94,0,1.4v2.72c0,.22,0,.44,0,.66,0,0,0,0,0,0H9.55Z"/><path class="cls-2" d="M10.89,3.48v.73a.28.28,0,0,1-.07.19.23.23,0,0,1-.3,0,.22.22,0,0,1-.07-.17V3s0,0,0,0h-.6s0,0,0,0v.27a.22.22,0,0,1-.44,0c0-.18,0-.36,0-.54a.21.21,0,0,1,.2-.21h1.15a.23.23,0,0,1,.22.24c0,.25,0,.49,0,.74Z"/><path class="cls-2" d="M2,10.8l1.17.73a.19.19,0,0,0,.29-.16V11H7.62A.33.33,0,0,0,8,10.65H8a.33.33,0,0,0-.33-.33H3.44V9.94a.19.19,0,0,0-.29-.15L2,10.48A.19.19,0,0,0,2,10.8Z"/><path class="cls-2" d="M7.86,8.5,6.69,7.78a.19.19,0,0,0-.29.15v.4H2.22a.32.32,0,0,0-.32.32h0A.32.32,0,0,0,2.22,9H6.4v.38a.19.19,0,0,0,.29.16l1.16-.7A.19.19,0,0,0,7.86,8.5Z"/></svg>