<svg id="Layer_1" data-name="Layer 1" xmlns="http://www.w3.org/2000/svg" viewBox="0 0 15 15"><title>PICTOGRAMS</title><path d="M11.91,3.09A6.25,6.25,0,1,0,13.73,7.5,6.24,6.24,0,0,0,11.91,3.09ZM9.25,12.78h0a1,1,0,0,1-.1-.14s0-.05,0-.11l.11-.2,0-.08L9.41,12l-.24-.29-.24-.32s0-.08.14-.33a2.33,2.33,0,0,0,.11-.24s-.07-.15-.22-.33l-.19-.22-.06-.1v0l.14-.24L9,9.63l0,0-.07-.1a3.17,3.17,0,0,1-.24-.31L8.5,9V9l0-.05a2.65,2.65,0,0,1,.14-.26,1.76,1.76,0,0,0,.12-.23,2,2,0,0,0-.18-.24c-.15-.19-.31-.41-.31-.42l.14-.28a2.66,2.66,0,0,0,.14-.29l-.35-.45L7.87,6.3l-1-.1L6,6.11s0,0,0,.12c0,.71-.17,3.22-.31,6.1l0,.47h0a2.54,2.54,0,0,1-1.49-.47,5.91,5.91,0,1,1,7.14-.27A3.18,3.18,0,0,1,9.25,12.78Z"/></svg>