<svg id="Layer_1" data-name="Layer 1" xmlns="http://www.w3.org/2000/svg" viewBox="0 0 15 15"><defs><style>.cls-1{fill:none;}.cls-2{fill:#1d1d1b;}</style></defs><title>PICTOGRAMS</title><rect class="cls-1" x="2.34" y="1.19" width="10.32" height="10.32"/><path class="cls-2" d="M12.7,11.56H2.3V1.15H12.7ZM2.38,11.47H12.62V1.24H2.38Z"/><rect class="cls-2" x="2.34" y="6.31" width="0.26" height="0.09"/><path class="cls-2" d="M11.88,6.4h-.51V6.31h.51Zm-1,0h-.51V6.31h.51Zm-1,0H9.3V6.31h.52Zm-1,0H8.27V6.31h.52Zm-1,0H7.24V6.31h.52Zm-1,0H6.21V6.31h.52Zm-1,0H5.18V6.31H5.7Zm-1,0H4.15V6.31h.51Zm-1,0H3.12V6.31h.51Z"/><rect class="cls-2" x="12.4" y="6.31" width="0.26" height="0.09"/><path d="M7.89,8.4l-.15-.31c0-.06,0-.13-.08-.19a4,4,0,0,1-.27-1.37.57.57,0,0,1,0-.13V6.17A4.4,4.4,0,0,1,7.62,4.9l.12-.28c.07-.15.14-.3.22-.45a2.2,2.2,0,0,1,.17-.25l.44.27-.14-.62-.18-.75L7.71,3l-.83.19.44.27a5.08,5.08,0,0,0-.89,2.94,5.06,5.06,0,0,0,.89,2.94l-.44.27.84.21.53.12.18-.76.14-.61-.43.27A4.25,4.25,0,0,1,7.89,8.4Z"/><path class="cls-2" d="M6.67,12.4v.23H6.28v1.22H6V12.63H5.6V12.4Z"/><path class="cls-2" d="M7.17,12.4v1.45H6.88V12.4Z"/><path class="cls-2" d="M7.75,13.62h.47v.23H7.46V12.4h.29Z"/><path class="cls-2" d="M9.39,12.4v.23H9v1.22H8.72V12.63H8.33V12.4Z"/></svg>