<svg id="Layer_1" data-name="Layer 1" xmlns="http://www.w3.org/2000/svg" viewBox="0 0 15 15"><title>PICTOGRAMS</title><path d="M1.27,1.27V13.73H13.73V1.27ZM13.38,13.38H9.57l-.06-.09s0,0,0-.12a2.08,2.08,0,0,1,.13-.25l0-.09.14-.27-.3-.36-.29-.38s0-.1.17-.41c.07-.15.13-.28.14-.29s-.09-.18-.28-.4l-.22-.27L9,10.33v-.05L9.13,10l.19-.33,0,0-.09-.12-.29-.38-.21-.27h0l0-.06a2.12,2.12,0,0,1,.17-.32l.15-.28a3,3,0,0,0-.22-.3,4.47,4.47,0,0,1-.38-.51s.08-.16.17-.34l.17-.35-.43-.55L8,5.59,6.78,5.47,5.61,5.35a.61.61,0,0,0,0,.15c0,.87-.21,3.92-.38,7.42h0a.48.48,0,0,1-.48.46H1.62V1.62H13.38Z"/></svg>